<?xml version="1.0" encoding="utf-8"?>
<!-- Generator: Adobe Illustrator 20.0.0, SVG Export Plug-In . SVG Version: 6.00 Build 0)  -->
<svg version="1.1" id="Layer_1" xmlns="http://www.w3.org/2000/svg" xmlns:xlink="http://www.w3.org/1999/xlink" x="0px" y="0px"
	 viewBox="0 0 26 26" style="enable-background:new 0 0 26 26;" xml:space="preserve">
<style type="text/css">
	.st0{fill:#EEEEEE;}
	.st1{fill:#FF6B2B;}
</style>
<path id="Oval-7" class="st0" d="M13,26C5.8,26,0,20.2,0,13S5.8,0,13,0c7.2,0,13,5.8,13,13S20.2,26,13,26z M13,24
	c6.1,0,11-4.9,11-11S19.1,2,13,2S2,6.9,2,13S6.9,24,13,24z"/>
<path id="Oval-7-Copy" class="st1" d="M21.7,3.3C19.3,1.2,16.3,0,13,0C5.8,0,0,5.8,0,13s5.8,13,13,13v-2C6.9,24,2,19.1,2,13
	S6.9,2,13,2c2.8,0,5.3,1,7.4,2.8L21.7,3.3z"/>
</svg>
