<?xml version="1.0" encoding="utf-8"?>
<!-- Generator: Adobe Illustrator 20.0.0, SVG Export Plug-In . SVG Version: 6.00 Build 0)  -->
<svg version="1.1" id="Layer_1" xmlns="http://www.w3.org/2000/svg" xmlns:xlink="http://www.w3.org/1999/xlink" x="0px" y="0px"
	 viewBox="0 0 56 64" style="enable-background:new 0 0 56 64;" xml:space="preserve">
<style type="text/css">
	.st0{fill:#999999;}
	.st1{fill:#CCCCCC;}
	.st2{fill:#FFFFFF;}
</style>
<path id="Rectangle-Copy-5" class="st0" d="M0,4c0-2.2,1.8-4,4-4h36l16,16v44c0,2.2-1.8,4-4,4H4c-2.2,0-4-1.8-4-4V4z"/>
<path id="Path-29" class="st1" d="M40,0v12c0,2.2,1.8,4,4,4l12,0L40,0z"/>
<path id="txt" class="st2" d="M19.8,25.3l-2.1,0.9v2.5h-1.9v1.8h1.9v6c0,0.8,0.2,1.4,0.6,1.9c0.4,0.5,1.1,0.7,1.9,0.7h1.7v-1.8h-1.4
	c-0.3,0-0.4-0.1-0.6-0.2c-0.1-0.1-0.2-0.3-0.2-0.6v-6h2.4v-1.8h-2.4V25.3z M23.3,28.7l3.6,4.8l-4,5.5h2.5l2.7-3.9l2.7,3.9h2.5
	l-4-5.5l3.6-4.8h-2.5L28,31.9l-2.3-3.3H23.3z M37.6,25.3l-2.1,0.9v2.5h-1.9v1.8h1.9v6c0,0.8,0.2,1.4,0.6,1.9
	c0.4,0.5,1.1,0.7,1.9,0.7h1.7v-1.8h-1.4c-0.3,0-0.4-0.1-0.6-0.2c-0.1-0.1-0.2-0.3-0.2-0.6v-6H40v-1.8h-2.4V25.3z"/>
</svg>
