<?xml version="1.0" encoding="utf-8"?>
<!-- Generator: Adobe Illustrator 20.0.0, SVG Export Plug-In . SVG Version: 6.00 Build 0)  -->
<svg version="1.1" id="Layer_1" xmlns="http://www.w3.org/2000/svg" xmlns:xlink="http://www.w3.org/1999/xlink" x="0px" y="0px"
	 viewBox="0 0 56 64" style="enable-background:new 0 0 56 64;" xml:space="preserve">
<style type="text/css">
	.st0{fill:#EA773C;}
	.st1{fill:#F4BB9D;}
	.st2{fill:#FFFFFF;}
</style>
<path id="Rectangle-Copy-5" class="st0" d="M0,4c0-2.2,1.8-4,4-4h36l16,16v44c0,2.2-1.8,4-4,4H4c-2.2,0-4-1.8-4-4V4z"/>
<path id="Path-29" class="st1" d="M40,0v12c0,2.2,1.8,4,4,4l12,0L40,0z"/>
<path id="html" class="st2" d="M8.6,24.4V39h2.1v-5.8c0-0.9,0.2-1.6,0.7-2.2c0.4-0.6,1-0.9,1.7-0.9c0.8,0,1.4,0.2,1.8,0.7
	c0.4,0.5,0.6,1.2,0.6,2.1V39h2.1v-6.4c0-1.4-0.3-2.4-0.9-3.1c-0.6-0.7-1.6-1.1-2.8-1.1c-0.7,0-1.2,0.1-1.8,0.4
	c-0.6,0.3-1.1,0.7-1.4,1.3v-5.7H8.6z M23.2,25.3l-2.1,0.9v2.5h-1.9v1.8h1.9v6c0,0.8,0.2,1.4,0.6,1.9c0.4,0.5,1.1,0.7,1.9,0.7h1.7
	v-1.8h-1.4c-0.3,0-0.4-0.1-0.6-0.2c-0.1-0.1-0.2-0.3-0.2-0.6v-6h2.4v-1.8h-2.4V25.3z M32.2,28.4c-1,0-2,0.5-2.8,1.4v-1.1h-2.1V39
	h2.1v-6.2c0-0.7,0.2-1.3,0.6-1.8c0.4-0.5,1-0.8,1.6-0.8c1.4,0,2.1,0.8,2.1,2.4V39h2.1v-6.4c0-0.8,0.2-1.4,0.6-1.8
	c0.4-0.4,0.9-0.7,1.5-0.7c0.8,0,1.4,0.2,1.8,0.6c0.4,0.4,0.5,1,0.5,1.8V39h2.1v-6.8c0-1.2-0.4-2.1-1-2.8c-0.7-0.7-1.6-1.1-2.6-1.1
	c-0.7,0-1.3,0.1-1.8,0.4c-0.5,0.3-1,0.7-1.5,1.4C34.8,29,33.7,28.4,32.2,28.4z M45,24.4V39h2.1V24.4H45z"/>
</svg>
