<?xml version="1.0" encoding="utf-8"?>
<!-- Generator: Adobe Illustrator 20.0.0, SVG Export Plug-In . SVG Version: 6.00 Build 0)  -->
<svg version="1.1" id="Layer_1" xmlns="http://www.w3.org/2000/svg" xmlns:xlink="http://www.w3.org/1999/xlink" x="0px" y="0px"
	 viewBox="0 0 56 64" style="enable-background:new 0 0 56 64;" xml:space="preserve">
<style type="text/css">
	.st0{fill:#3F58F4;}
	.st1{fill:#9FABF9;}
	.st2{fill:#FFFFFF;}
</style>
<path id="Rectangle-Copy-5" class="st0" d="M0,4c0-2.2,1.8-4,4-4h36l16,16v44c0,2.2-1.8,4-4,4H4c-2.2,0-4-1.8-4-4V4z"/>
<path id="Path-29" class="st1" d="M40,0v12c0,2.2,1.8,4,4,4l12,0L40,0z"/>
<path id="docx" class="st2" d="M13.8,24.4h2.1V39h-2v-1.2c-0.7,1-1.8,1.5-3.2,1.5c-1.5,0-2.7-0.5-3.6-1.6c-0.8-1-1.2-2.3-1.2-3.9
	C6,32.3,6.3,31,7.2,30c0.8-1.1,2-1.6,3.5-1.6c1.3,0,2.3,0.6,3.2,1.8V24.4z M11.1,30.1c-1,0-1.8,0.3-2.3,1.1
	c-0.4,0.6-0.7,1.5-0.7,2.6s0.2,2,0.6,2.7c0.5,0.7,1.3,1.1,2.3,1.1c0.9,0,1.6-0.4,2.1-1.1c0.4-0.7,0.7-1.5,0.7-2.5v-0.2
	c0-1.1-0.3-2-0.8-2.7C12.6,30.4,11.9,30.1,11.1,30.1z M23.1,28.4c1.6,0,2.8,0.5,3.8,1.6c0.9,1,1.4,2.3,1.4,3.9
	c0,1.6-0.5,2.9-1.4,3.9c-1,1-2.2,1.6-3.8,1.6s-2.8-0.5-3.8-1.6c-0.9-1-1.4-2.3-1.4-3.9c0-1.6,0.5-2.9,1.4-3.9
	C20.3,28.9,21.5,28.4,23.1,28.4z M23.1,30.1c-1,0-1.7,0.4-2.3,1.2c-0.5,0.7-0.7,1.5-0.7,2.6s0.2,1.9,0.7,2.5
	c0.5,0.8,1.3,1.2,2.3,1.2s1.7-0.4,2.3-1.2c0.5-0.7,0.7-1.5,0.7-2.5c0-1-0.2-1.9-0.7-2.6C24.8,30.5,24.1,30.1,23.1,30.1z M34.9,28.4
	c-1.6,0-2.8,0.5-3.7,1.6c-0.8,1-1.3,2.3-1.3,3.8c0,1.6,0.4,2.9,1.3,3.9c0.9,1,2.1,1.6,3.7,1.6c1.3,0,2.4-0.3,3.2-1
	c0.8-0.7,1.3-1.7,1.6-3.1h-2.1c-0.2,1.6-1.1,2.4-2.7,2.4c-0.9,0-1.6-0.3-2.1-1C32.3,35.9,32,35,32,33.8s0.2-2.1,0.8-2.7
	c0.5-0.7,1.2-1,2.1-1c0.7,0,1.3,0.2,1.7,0.5c0.4,0.3,0.7,0.8,0.9,1.5h2.1c-0.2-1.3-0.7-2.2-1.5-2.9C37.2,28.7,36.2,28.4,34.9,28.4z
	 M40.8,28.7l3.6,4.8l-4,5.5h2.5l2.7-3.9l2.7,3.9h2.5l-4-5.5l3.6-4.8h-2.5l-2.3,3.3l-2.3-3.3H40.8z"/>
</svg>
