<?xml version="1.0" encoding="utf-8"?>
<!-- Generator: Adobe Illustrator 20.0.0, SVG Export Plug-In . SVG Version: 6.00 Build 0)  -->
<svg version="1.1" id="Layer_1" xmlns="http://www.w3.org/2000/svg" xmlns:xlink="http://www.w3.org/1999/xlink" x="0px" y="0px"
	 viewBox="0 0 56 64" style="enable-background:new 0 0 56 64;" xml:space="preserve">
<style type="text/css">
	.st0{fill:#FF605D;}
	.st1{fill:#FFAFAE;}
	.st2{fill:#FFFFFF;}
</style>
<path id="Rectangle-Copy-5" class="st0" d="M0,4c0-2.2,1.8-4,4-4h36l16,16v44c0,2.2-1.8,4-4,4H4c-2.2,0-4-1.8-4-4V4z"/>
<path id="Path-29" class="st1" d="M40,0v12c0,2.2,1.8,4,4,4l12,0L40,0z"/>
<path id="pdf" class="st2" d="M18.6,28.4c1.5,0,2.7,0.5,3.6,1.6c0.8,1,1.2,2.3,1.2,3.9c0,1.5-0.4,2.8-1.2,3.8
	c-0.8,1.1-2,1.6-3.5,1.6c-1.3,0-2.3-0.6-3.2-1.8V43h-2.1V28.7h2v1.2C16.2,28.9,17.2,28.4,18.6,28.4z M18.3,30.1
	c-0.9,0-1.6,0.4-2.1,1.1c-0.4,0.6-0.7,1.5-0.7,2.6v0.2c0,1.1,0.3,2,0.8,2.7c0.5,0.6,1.1,0.9,1.9,0.9c1,0,1.8-0.3,2.3-1
	c0.4-0.6,0.7-1.5,0.7-2.7s-0.2-2-0.6-2.7C20.1,30.5,19.4,30.1,18.3,30.1z M32.9,24.4H35V39h-2v-1.2c-0.7,1-1.8,1.5-3.2,1.5
	c-1.5,0-2.7-0.5-3.6-1.6c-0.8-1-1.2-2.3-1.2-3.9c0-1.5,0.4-2.8,1.2-3.8c0.8-1.1,2-1.6,3.5-1.6c1.3,0,2.3,0.6,3.2,1.8V24.4z
	 M30.2,30.1c-1,0-1.8,0.3-2.3,1.1c-0.4,0.6-0.7,1.5-0.7,2.6s0.2,2,0.6,2.7c0.5,0.7,1.3,1.1,2.3,1.1c0.9,0,1.6-0.4,2.1-1.1
	c0.4-0.7,0.7-1.5,0.7-2.5v-0.2c0-1.1-0.3-2-0.8-2.7C31.6,30.4,31,30.1,30.2,30.1z M41.5,24.7c-0.9,0-1.6,0.2-2.1,0.8
	c-0.5,0.5-0.7,1.2-0.7,2.1v1.1h-2.4v1.7h2.4V39h2.1v-8.6h2.7v-1.7h-2.7v-1.1c0-0.4,0.1-0.7,0.2-0.8c0.2-0.2,0.4-0.3,0.8-0.3h1.9
	v-1.8H41.5z"/>
</svg>
